<mxfile host="app.diagrams.net" modified="2023-06-02T06:49:06.663Z" agent="Mozilla/5.0 (X11; Linux x86_64) AppleWebKit/537.36 (KHTML, like Gecko) Chrome/112.0.0.0 Safari/537.36" version="21.3.7" etag="brKaU3s9mcKQD4Qzw90u" type="github">
  <diagram name="Page-1" id="MCFuGXCLOOuzuS9qav1w">
    <mxGraphModel>
      <root>
        <mxCell id="0" />
        <mxCell id="1" parent="0" />
      </root>
    </mxGraphModel>
  </diagram>
</mxfile>
